<?xml version="1.0" encoding="utf-8"?>
<!-- Generator: Adobe Illustrator 18.1.1, SVG Export Plug-In . SVG Version: 6.00 Build 0)  -->
<svg version="1.1" id="Camada_1" xmlns="http://www.w3.org/2000/svg" xmlns:xlink="http://www.w3.org/1999/xlink" x="0px" y="0px"
	 viewBox="0 0 48 48" enable-background="new 0 0 48 48" xml:space="preserve">
<rect x="-177" fill="#878786" width="48" height="48"/>
<line fill="none" stroke="#B5B5B5" stroke-miterlimit="10" x1="-177" y1="0" x2="-129" y2="48"/>
<line fill="none" stroke="#B5B5B5" stroke-miterlimit="10" x1="-129" y1="0" x2="-177" y2="48"/>
<rect x="-75" y="23" fill="#CCCCCC" width="21.8" height="2"/>
<rect x="-66.2" y="17.7" transform="matrix(0.7072 0.707 -0.707 0.7072 -3.6724 46.2793)" fill="#CCCCCC" width="17" height="2"/>
<rect x="-66.2" y="28.3" transform="matrix(-0.7072 0.707 -0.707 -0.7072 -77.8036 90.8112)" fill="#CCCCCC" width="17" height="2"/>
<rect x="61" y="35.4" fill="#CCCCCC" width="21.8" height="2"/>
<rect x="69.8" y="30.1" transform="matrix(0.7072 0.707 -0.707 0.7072 44.9466 -46.2368)" fill="#CCCCCC" width="17" height="2"/>
<rect x="69.8" y="40.7" transform="matrix(-0.7072 0.707 -0.707 -0.7072 163.1651 15.8859)" fill="#CCCCCC" width="17" height="2"/>
<g display="none">
	<path display="inline" fill="#B5B5B5" d="M-51.3,12.3v23.5h-23.5V12.3H-51.3 M-51,12h-24v24h24V12L-51,12z"/>
</g>
<path fill="#FFFFFF" d="M33,23.1l3-2.7c-0.5-1.1-0.5-1.1-0.9-2.2l-4,0.2c-0.5-0.5-0.8-0.8-1.4-1.4l0.2-4c-1.1-0.5-1.1-0.5-2.2-0.9
	L25,15c-0.8,0-1.2,0-1.9,0l-2.7-3c-1.1,0.5-1.1,0.5-2.2,0.9l0.2,4c-0.5,0.5-0.8,0.8-1.4,1.4l-4-0.2c-0.5,1.1-0.5,1.1-0.9,2.2l3,2.7
	c0,0.8,0,1.2,0,1.9l-3,2.7c0.5,1.1,0.5,1.1,0.9,2.2l4-0.2c0.5,0.5,0.8,0.8,1.4,1.4l-0.2,4c1.1,0.5,1.1,0.5,2.2,0.9l2.7-3
	c0.8,0,1.2,0,1.9,0l2.7,3c1.1-0.5,1.1-0.5,2.2-0.9l-0.2-4c0.5-0.5,0.8-0.8,1.4-1.4l4,0.2c0.5-1.1,0.5-1.1,0.9-2.2L33,25
	C33,24.2,33,23.8,33,23.1z M28.6,24.9c-0.5,2.6-3,4.2-5.6,3.7c-2.6-0.5-4.2-3-3.7-5.6c0.5-2.6,3-4.2,5.6-3.7
	C27.5,19.9,29.2,22.3,28.6,24.9z"/>
</svg>
