<?xml version="1.0" encoding="utf-8"?>
<!-- Generator: Adobe Illustrator 18.1.1, SVG Export Plug-In . SVG Version: 6.00 Build 0)  -->
<svg version="1.1" id="Camada_1" xmlns="http://www.w3.org/2000/svg" xmlns:xlink="http://www.w3.org/1999/xlink" x="0px" y="0px"
	 viewBox="0 0 48 48" enable-background="new 0 0 48 48" xml:space="preserve">
<rect x="-209" y="-100" fill="#878786" width="48" height="48"/>
<line fill="none" stroke="#B5B5B5" stroke-miterlimit="10" x1="-209" y1="-100" x2="-161" y2="-52"/>
<line fill="none" stroke="#B5B5B5" stroke-miterlimit="10" x1="-161" y1="-100" x2="-209" y2="-52"/>
<rect x="-107" y="-77" fill="#CCCCCC" width="21.8" height="2"/>
<rect x="-98.2" y="-82.3" transform="matrix(0.7072 0.707 -0.707 0.7072 -83.7476 39.6215)" fill="#CCCCCC" width="17" height="2"/>
<rect x="-98.2" y="-71.7" transform="matrix(-0.7072 0.707 -0.707 -0.7072 -203.1375 -57.2801)" fill="#CCCCCC" width="17" height="2"/>
<g>
	<rect x="-107" y="12" fill="#CCCCCC" width="24" height="2"/>
	<rect x="-107" y="23" fill="#CCCCCC" width="24" height="2"/>
	<rect x="-107" y="34" fill="#CCCCCC" width="24" height="2"/>
</g>
<rect x="12" y="23" transform="matrix(0.7071 0.7071 -0.7071 0.7071 24 -9.9411)" fill="#CCCCCC" width="24" height="2"/>
<rect x="12" y="23" transform="matrix(0.7071 -0.7071 0.7071 0.7071 -9.9411 24)" fill="#CCCCCC" width="24" height="2"/>
<rect x="29" y="-64.6" fill="#CCCCCC" width="21.8" height="2"/>
<rect x="37.8" y="-69.9" transform="matrix(0.7072 0.707 -0.707 0.7072 -35.1286 -52.8945)" fill="#CCCCCC" width="17" height="2"/>
<rect x="37.8" y="-59.3" transform="matrix(-0.7072 0.707 -0.707 -0.7072 37.8312 -132.2054)" fill="#CCCCCC" width="17" height="2"/>
<g display="none">
	<path display="inline" fill="#B5B5B5" d="M-83.3-87.8v23.5h-23.5v-23.5H-83.3 M-83-88h-24v24h24V-88L-83-88z"/>
</g>
<path fill="#FFFFFF" d="M1-76.9l3-2.7c-0.5-1.1-0.5-1.1-0.9-2.2l-4,0.2c-0.5-0.5-0.8-0.8-1.4-1.4l0.2-4c-1.1-0.5-1.1-0.5-2.2-0.9
	L-7-85c-0.8,0-1.2,0-1.9,0l-2.7-3c-1.1,0.5-1.1,0.5-2.2,0.9l0.2,4c-0.5,0.5-0.8,0.8-1.4,1.4l-4-0.2c-0.5,1.1-0.5,1.1-0.9,2.2l3,2.7
	c0,0.8,0,1.2,0,1.9l-3,2.7c0.5,1.1,0.5,1.1,0.9,2.2l4-0.2c0.5,0.5,0.8,0.8,1.4,1.4l-0.2,4c1.1,0.5,1.1,0.5,2.2,0.9l2.7-3
	c0.8,0,1.2,0,1.9,0l2.7,3c1.1-0.5,1.1-0.5,2.2-0.9l-0.2-4c0.5-0.5,0.8-0.8,1.4-1.4l4,0.2c0.5-1.1,0.5-1.1,0.9-2.2L1-75
	C1-75.8,1-76.2,1-76.9z M-3.4-75.1c-0.5,2.6-3,4.2-5.6,3.7c-2.6-0.5-4.2-3-3.7-5.6c0.5-2.6,3-4.2,5.6-3.7
	C-4.5-80.1-2.8-77.7-3.4-75.1z"/>
</svg>
