<?xml version="1.0" encoding="utf-8"?>
<!-- Generator: Adobe Illustrator 18.1.1, SVG Export Plug-In . SVG Version: 6.00 Build 0)  -->
<svg version="1.1" id="Camada_1" xmlns="http://www.w3.org/2000/svg" xmlns:xlink="http://www.w3.org/1999/xlink" x="0px" y="0px"
	 viewBox="0 0 48 48" enable-background="new 0 0 48 48" xml:space="preserve">
<pattern  x="-276" y="-90" width="24" height="24" patternUnits="userSpaceOnUse" id="Unnamed_Pattern" viewBox="0.5 -24.5 24 24" overflow="visible">
	<g>
		<polygon fill="none" points="0.5,-0.5 24.5,-0.5 24.5,-24.5 0.5,-24.5 		"/>
		<g>
			<path fill="#ED1818" d="M23.5-23.5h-22v22h22V-23.5 M24.5-24.5v24h-24v-24H24.5L24.5-24.5z"/>
		</g>
	</g>
</pattern>
<rect x="-276" y="-90" fill="#878786" width="48" height="48"/>
<line fill="none" stroke="#B5B5B5" stroke-miterlimit="10" x1="-276" y1="-90" x2="-228" y2="-42"/>
<line fill="none" stroke="#B5B5B5" stroke-miterlimit="10" x1="-228" y1="-90" x2="-276" y2="-42"/>
<rect x="-174" y="-67" fill="#CCCCCC" width="21.8" height="2"/>
<rect x="-165.2" y="-72.3" transform="matrix(0.7072 0.707 -0.707 0.7072 -96.2969 89.9219)" fill="#CCCCCC" width="17" height="2"/>
<rect x="-165.2" y="-61.7" transform="matrix(-0.7072 0.707 -0.707 -0.7072 -310.4473 7.1636)" fill="#CCCCCC" width="17" height="2"/>
<g>
	
		<rect x="-88.5" y="17.7" transform="matrix(-0.7072 0.707 -0.707 -0.7072 -123.3474 88.498)" fill="#FFFFFF" width="17" height="2"/>
	<rect x="-88.5" y="28.3" transform="matrix(0.7072 0.707 -0.707 0.7072 -2.7144 65.1418)" fill="#FFFFFF" width="17" height="2"/>
</g>
<g>
	<rect x="-174" y="22" fill="#CCCCCC" width="24" height="2"/>
	<rect x="-174" y="33" fill="#CCCCCC" width="24" height="2"/>
	<rect x="-174" y="44" fill="#CCCCCC" width="24" height="2"/>
</g>
<rect x="-38" y="-54.6" fill="#CCCCCC" width="21.8" height="2"/>
<rect x="-29.2" y="-59.9" transform="matrix(0.7072 0.707 -0.707 0.7072 -47.6779 -2.5942)" fill="#CCCCCC" width="17" height="2"/>
<rect x="-29.2" y="-49.3" transform="matrix(-0.7072 0.707 -0.707 -0.7072 -69.4786 -67.7617)" fill="#CCCCCC" width="17" height="2"/>
<g display="none">
	<path display="inline" fill="#B5B5B5" d="M-150.3-77.8v23.5h-23.5v-23.5H-150.3 M-150-78h-24v24h24V-78L-150-78z"/>
</g>
<path fill="#FFFFFF" d="M-66-66.9l3-2.7c-0.5-1.1-0.5-1.1-0.9-2.2l-4,0.2c-0.5-0.5-0.8-0.8-1.4-1.4l0.2-4c-1.1-0.5-1.1-0.5-2.2-0.9
	l-2.7,3c-0.8,0-1.2,0-1.9,0l-2.7-3c-1.1,0.5-1.1,0.5-2.2,0.9l0.2,4c-0.5,0.5-0.8,0.8-1.4,1.4l-4-0.2c-0.5,1.1-0.5,1.1-0.9,2.2l3,2.7
	c0,0.8,0,1.2,0,1.9l-3,2.7c0.5,1.1,0.5,1.1,0.9,2.2l4-0.2c0.5,0.5,0.8,0.8,1.4,1.4l-0.2,4c1.1,0.5,1.1,0.5,2.2,0.9l2.7-3
	c0.8,0,1.2,0,1.9,0l2.7,3c1.1-0.5,1.1-0.5,2.2-0.9l-0.2-4c0.5-0.5,0.8-0.8,1.4-1.4l4,0.2c0.5-1.1,0.5-1.1,0.9-2.2l-3-2.7
	C-66-65.8-66-66.2-66-66.9z M-70.4-65.1c-0.5,2.6-3,4.2-5.6,3.7c-2.6-0.5-4.2-3-3.7-5.6c0.5-2.6,3-4.2,5.6-3.7
	C-71.5-70.1-69.8-67.7-70.4-65.1z"/>
<g>
	<rect x="-42.9" y="12.5" fill="url(#Unnamed_Pattern)" width="23" height="23"/>
	<path fill="#ED1818" d="M-20.4,13v22h-22V13H-20.4 M-19.4,12h-24v24h24V12L-19.4,12z"/>
</g>
<g>
	<polygon fill="#FFFFFF" points="36,27 24,15 24,15 24,15 12,27 13.4,28.4 16,25.8 16,33 32,33 32,25.8 34.6,28.4 	"/>
</g>
<g>
	
		<rect x="-21.3" y="44.3" transform="matrix(-0.707 -0.7072 0.7072 -0.707 -53.9164 68.2036)" fill="#ED1818" width="17" height="2"/>
	<rect x="-31.9" y="44.3" transform="matrix(-0.707 0.7072 -0.7072 -0.707 -7.964 93.8384)" fill="#ED1818" width="17" height="2"/>
</g>
<g>
	<polygon fill="#ED1818" points="-10.1,46.7 -10.1,56.6 -26.1,56.6 -26.1,46.7 -18.1,38.6 	"/>
</g>
</svg>
