<?xml version="1.0" encoding="utf-8"?>
<!-- Generator: Adobe Illustrator 18.1.1, SVG Export Plug-In . SVG Version: 6.00 Build 0)  -->
<svg version="1.1" id="Camada_1" xmlns="http://www.w3.org/2000/svg" xmlns:xlink="http://www.w3.org/1999/xlink" x="0px" y="0px"
	 viewBox="0 0 160 48" enable-background="new 0 0 160 48" xml:space="preserve">
<rect x="-280" fill="#878786" width="48" height="48"/>
<line fill="none" stroke="#B5B5B5" stroke-miterlimit="10" x1="-280" y1="0" x2="-232" y2="48"/>
<line fill="none" stroke="#B5B5B5" stroke-miterlimit="10" x1="-232" y1="0" x2="-280" y2="48"/>
<rect x="-178" y="23" fill="#CCCCCC" width="21.8" height="2"/>
<rect x="-169.2" y="17.7" transform="matrix(0.7072 0.707 -0.707 0.7072 -33.8341 119.105)" fill="#CCCCCC" width="17" height="2"/>
<rect x="-169.2" y="28.3" transform="matrix(-0.7072 0.707 -0.707 -0.7072 -253.6419 163.6369)" fill="#CCCCCC" width="17" height="2"/>
<g>
	<rect x="-49.8" y="23" fill="#CCCCCC" width="21.8" height="2"/>
	
		<rect x="-53.8" y="17.7" transform="matrix(-0.7072 0.707 -0.707 -0.7072 -64.0965 63.9585)" fill="#CCCCCC" width="17" height="2"/>
	<rect x="-53.8" y="28.3" transform="matrix(0.7072 0.707 -0.707 0.7072 7.4489 40.6023)" fill="#CCCCCC" width="17" height="2"/>
</g>
<g display="none">
	<path display="inline" fill="#B5B5B5" d="M-154.3,12.3v23.5h-23.5V12.3H-154.3 M-154,12h-24v24h24V12L-154,12z"/>
</g>
<g>
	<path fill="#FFFFFF" d="M39.6,25.5c-3.5,2.4-7.2,3.8-11.4,3.7l-1.9,2.7c0,0,6.4,0.8,13.1-3.5c8.4-5.4,0-9.4,0-9.4
		S44.1,22.5,39.6,25.5z"/>
	<path fill="#FFFFFF" d="M39.6,25.6c-1.7,1.1-3.5,2.1-5.4,2.8c-1.9,0.7-4,1-6,1l0.1,0L26.3,32l0-0.1h0c1.1,0.1,2.2,0.1,3.3-0.1
		c1.1-0.1,2.2-0.3,3.2-0.6c2.1-0.5,4.2-1.4,6-2.5c0.9-0.6,1.8-1.2,2.6-1.9c0.4-0.4,0.7-0.8,1-1.3c0.3-0.5,0.5-1,0.6-1.5
		c0.1-0.5,0-1.1-0.2-1.6c-0.2-0.5-0.5-1-0.9-1.4c-0.7-0.8-1.6-1.5-2.6-2l0.1-0.1l0,0c0.5,0.4,1,0.9,1.4,1.5c0.4,0.5,0.7,1.2,0.7,1.9
		c0.1,0.7-0.1,1.4-0.5,1.9C40.7,24.8,40.2,25.2,39.6,25.6z M39.6,25.5c0.5-0.4,1-0.8,1.4-1.3c0.4-0.5,0.6-1.2,0.5-1.8
		c-0.1-0.6-0.4-1.3-0.7-1.8c-0.4-0.5-0.8-1-1.3-1.4l0,0l0.1-0.1c1,0.5,1.9,1.2,2.6,2c0.4,0.4,0.7,0.9,0.9,1.4
		c0.2,0.5,0.3,1.1,0.2,1.7c-0.1,0.6-0.3,1.1-0.6,1.6c-0.3,0.5-0.7,0.9-1.1,1.3c-0.8,0.8-1.7,1.4-2.7,2c-1.9,1.1-3.9,2-6.1,2.5
		c-1.1,0.3-2.2,0.5-3.2,0.6c-1.1,0.1-2.2,0.1-3.3,0h0l-0.1,0l0.1-0.1l1.9-2.7l0,0h0c2,0,4.1-0.3,6-1C36.1,27.6,37.9,26.6,39.6,25.5z
		"/>
	<rect x="57.2" y="27.6" fill="#FFFFFF" width="93.6" height="0.7"/>
	<path fill="#FFFFFF" d="M150.9,28.3H57.2v-0.8h93.7V28.3z M57.3,28.3h93.6v-0.7H57.3V28.3z"/>
	<path fill="#FFFFFF" d="M24.8,22.3c3.5-2.4,7.2-3.8,11.4-3.7l1.9-2.7c0,0-6.4-0.8-13.1,3.5c-8.4,5.4,0,9.4,0,9.4
		S20.3,25.4,24.8,22.3z"/>
	<path fill="#FFFFFF" d="M24.8,22.3c1.7-1.1,3.5-2.1,5.4-2.8c1.9-0.7,4-1,6-1l0,0h0l1.9-2.7l0,0.1h0c-1.1-0.1-2.2-0.1-3.3,0.1
		c-1.1,0.1-2.2,0.3-3.2,0.6c-2.1,0.5-4.2,1.4-6,2.5c-0.9,0.6-1.8,1.2-2.6,2c-0.4,0.4-0.7,0.8-1,1.3c-0.3,0.5-0.5,1-0.6,1.5
		c-0.1,0.5,0,1.1,0.2,1.6c0.2,0.5,0.5,1,0.9,1.4c0.7,0.8,1.6,1.5,2.6,2l-0.1,0.1l0,0c-0.5-0.4-1-0.9-1.4-1.5
		c-0.4-0.5-0.7-1.2-0.7-1.8c-0.1-0.7,0.1-1.3,0.5-1.9C23.7,23.2,24.2,22.7,24.8,22.3z M24.8,22.3c-0.5,0.4-1.1,0.8-1.4,1.4
		c-0.4,0.5-0.6,1.2-0.5,1.9c0.1,0.7,0.4,1.3,0.7,1.8c0.4,0.5,0.9,1,1.4,1.4h0l-0.1,0.1c-0.5-0.2-1-0.5-1.4-0.9
		c-0.4-0.3-0.9-0.7-1.2-1.1c-0.4-0.4-0.7-0.9-0.9-1.4c-0.2-0.5-0.3-1.1-0.2-1.7c0.1-0.6,0.3-1.1,0.6-1.6c0.3-0.5,0.7-0.9,1.1-1.3
		c0.8-0.8,1.7-1.4,2.7-2c1.9-1.1,3.9-2,6.1-2.5c1.1-0.3,2.2-0.5,3.2-0.6c1.1-0.1,2.2-0.1,3.3,0h0l0.1,0l0,0.1l-1.9,2.7l0,0l0,0l0,0
		c-1,0-2,0-3,0.2c-1,0.2-2,0.4-3,0.7C28.3,20.2,26.5,21.2,24.8,22.3z"/>
	<path fill="#F79420" d="M32,12.5L9.3,12.6l7.3,7C16.6,19.6,25.5,13.4,32,12.5z"/>
	<path fill="#FFD300" d="M47.7,28.6l7.3,6.7l-21.9,0.1C33.1,35.5,42.8,32.8,47.7,28.6z"/>
	<path fill="#00A0E3" d="M16,28.7H9.1l6.6,6.7l9.3,0.1l3.3-6.5l-8.5-0.2c0,0,1,2,3.9,3C23.7,31.8,21,33,16,28.7z"/>
	<linearGradient id="SVGID_1_" gradientUnits="userSpaceOnUse" x1="35.4343" y1="15.8864" x2="55.0226" y2="15.8864">
		<stop  offset="0" style="stop-color:#8BC53F"/>
		<stop  offset="0.9" style="stop-color:#8BC53F"/>
		<stop  offset="1" style="stop-color:#8BC53F"/>
	</linearGradient>
	<path fill="url(#SVGID_1_)" d="M39.3,12.4h8.8l6.9,6.9l-6.7-0.1c0,0-3.9-2.9-7.7-2.9c0,0,2.5,1,3.6,2.9l-8.8-0.1L39.3,12.4z"/>
	<path fill="#FFFFFF" d="M41.2,16.5c0,0,7.2,1.3,8,6.2c1.3,8.1-18.7,12.7-18.7,12.7l2.7,0c0,0,12.6-3.6,15.8-8.1
		C54,19.9,44.3,16.5,41.2,16.5z"/>
	<path fill="#FFFFFF" d="M41.2,16.4c1.4,0.3,2.8,0.8,4.1,1.5c1.3,0.7,2.5,1.6,3.2,2.9c0.4,0.6,0.6,1.3,0.7,2.1
		c0.1,0.7,0,1.5-0.2,2.2c-0.2,0.7-0.6,1.3-1.1,1.9c-0.5,0.6-1,1.1-1.5,1.6c-1.1,0.9-2.4,1.7-3.6,2.4c-1.3,0.7-2.6,1.3-4,1.8
		c-2.7,1.1-5.5,2-8.3,2.7l0-0.1l2.7,0l0,0c2.8-0.8,5.5-1.8,8.1-3c1.3-0.6,2.6-1.2,3.8-2c1.2-0.7,2.4-1.6,3.4-2.7
		c0.2-0.3,0.4-0.6,0.6-0.9c0.2-0.3,0.4-0.6,0.5-0.9c0.3-0.6,0.5-1.3,0.6-2c0.1-0.7,0-1.4-0.2-2.1c-0.2-0.7-0.6-1.3-1.1-1.8
		c-1-1.1-2.2-1.8-3.5-2.4c-0.7-0.3-1.3-0.5-2-0.7C42.6,16.7,41.9,16.5,41.2,16.4L41.2,16.4z M41.2,16.4c0.7,0,1.4,0.2,2.1,0.3
		c0.7,0.2,1.4,0.4,2.1,0.7c1.3,0.6,2.6,1.3,3.6,2.4c0.5,0.5,0.9,1.2,1.1,1.9c0.2,0.7,0.3,1.4,0.2,2.2c-0.1,0.7-0.3,1.4-0.7,2.1
		c-0.2,0.3-0.3,0.6-0.5,1c-0.2,0.3-0.4,0.6-0.6,0.9c-1,1.1-2.2,1.9-3.4,2.7c-1.2,0.7-2.5,1.4-3.9,2c-2.6,1.2-5.4,2.1-8.2,3l0,0h0
		l-2.7,0l-0.4,0l0.3-0.1c2.8-0.7,5.6-1.6,8.3-2.7c1.3-0.5,2.7-1.2,4-1.8c1.3-0.7,2.5-1.5,3.6-2.4c0.6-0.5,1.1-1,1.5-1.6
		c0.4-0.6,0.8-1.2,1.1-1.9c0.2-0.7,0.3-1.4,0.2-2.1c-0.1-0.7-0.3-1.4-0.7-2c-0.7-1.3-1.9-2.2-3.2-2.9C44,17.3,42.6,16.8,41.2,16.4
		L41.2,16.4z"/>
	<path fill="#FFFFFF" d="M22.5,31.9c0,0-6.3-1.8-7.1-6.7c-1.3-8.1,18.5-12.6,18.5-12.6l-2.7,0c0,0-12.7,3.5-15.7,8.1
		C11,27.5,19.4,31.9,22.5,31.9z"/>
	<path fill="#FFFFFF" d="M22.2,31.8c-1.3-0.4-2.5-1-3.5-1.8c-1.2-0.8-2.2-1.9-2.8-3.2c-0.3-0.7-0.5-1.4-0.6-2.1
		c-0.1-0.7,0.1-1.4,0.3-2.1c0.5-1.4,1.5-2.5,2.6-3.4c1.1-0.9,2.3-1.7,3.6-2.4c1.3-0.7,2.6-1.3,3.9-1.8c2.7-1.1,5.4-1.9,8.2-2.6
		l0,0.1l-2.7,0l0,0c-2.7,0.8-5.4,1.7-8,2.9c-1.3,0.6-2.6,1.2-3.8,1.9C18.2,18.2,17,19,16,20.1c-0.5,0.5-0.8,1.1-1.1,1.8
		c-0.3,0.6-0.5,1.3-0.6,2c-0.1,0.7,0,1.4,0.1,2.1c0.2,0.7,0.5,1.3,0.9,1.9c0.8,1.1,1.9,2.1,3.2,2.8c0.6,0.3,1.3,0.6,1.9,0.9
		C21,31.6,21.6,31.8,22.2,31.8z M22.5,32c-0.7,0-1.4-0.2-2.1-0.4c-0.7-0.2-1.3-0.5-2-0.9c-1.2-0.7-2.4-1.6-3.2-2.8
		c-0.4-0.6-0.8-1.2-0.9-1.9c-0.2-0.7-0.2-1.4-0.2-2.1c0.1-0.7,0.3-1.4,0.6-2.1c0.3-0.6,0.7-1.3,1.2-1.8c1-1.1,2.2-1.9,3.4-2.6
		c1.2-0.7,2.5-1.3,3.8-1.9c2.6-1.1,5.3-2.1,8-2.9l0,0h0l2.7,0l0.4,0l-0.4,0.1c-2.8,0.7-5.5,1.5-8.1,2.6c-1.3,0.5-2.6,1.1-3.9,1.8
		c-1.3,0.7-2.5,1.4-3.6,2.4c-1.1,0.9-2.1,2-2.6,3.3c-0.3,0.7-0.4,1.4-0.3,2.1c0.1,0.7,0.3,1.4,0.6,2c0.6,1.3,1.6,2.3,2.8,3.2
		C19.9,30.8,21.2,31.4,22.5,32l0.3,0L22.5,32z"/>
	<path fill="#FFFFFF" d="M59.3,25.5v-9.8h-2.9v-3h9.2v3h-2.9v9.8H59.3z"/>
	<path fill="#FFFFFF" d="M63.1,25.8h-4.2V16H56v-3.7h10V16h-2.9V25.8z M59.6,25.1h2.8v-9.8h2.9V13h-8.5v2.3h2.9V25.1z"/>
	<path fill="#FFFFFF" d="M67.3,25.5V12.7h7.9v2.8h-4.5v2.2H75v2.8h-4.2v2.2h4.5v2.9H67.3z"/>
	<path fill="#FFFFFF" d="M75.6,25.8H67V12.3h8.6v3.5h-4.5v1.5h4.2v3.5h-4.2v1.5h4.5V25.8z M67.7,25.1h7.2V23h-4.5v-2.9h4.2v-2h-4.2
		v-2.9h4.5V13h-7.2V25.1z"/>
	<path fill="#FFFFFF" d="M86.8,13.2V17c-0.5-0.5-1-0.9-1.4-1.2c-0.5-0.2-1-0.4-1.5-0.4c-1,0-1.8,0.3-2.4,1c-0.6,0.7-0.9,1.6-0.9,2.7
		c0,1,0.3,1.9,1,2.6c0.6,0.7,1.4,1,2.4,1c0.5,0,1.1-0.1,1.5-0.4c0.5-0.2,1-0.6,1.4-1.2V25c-0.6,0.3-1.1,0.5-1.7,0.6
		c-0.5,0.1-1.1,0.2-1.7,0.2c-0.7,0-1.3-0.1-1.9-0.2c-0.6-0.2-1.1-0.4-1.6-0.8c-1-0.6-1.7-1.5-2.2-2.4c-0.5-1-0.8-2.1-0.8-3.3
		c0-1,0.2-1.9,0.5-2.7c0.3-0.8,0.8-1.5,1.4-2.2c0.6-0.6,1.3-1.1,2.1-1.4c0.8-0.3,1.6-0.5,2.5-0.5c0.6,0,1.1,0.1,1.7,0.2
		C85.7,12.7,86.3,12.9,86.8,13.2z"/>
	<path fill="#FFFFFF" d="M83.5,26.2c-0.7,0-1.4-0.1-2-0.3c-0.6-0.2-1.2-0.4-1.7-0.8c-1-0.7-1.8-1.5-2.3-2.6c-0.5-1-0.8-2.2-0.8-3.5
		c0-1,0.2-2,0.5-2.8c0.3-0.8,0.8-1.6,1.5-2.3c0.6-0.7,1.4-1.2,2.2-1.5c0.8-0.3,1.7-0.5,2.7-0.5c0.6,0,1.2,0.1,1.7,0.2
		c0.6,0.1,1.2,0.4,1.7,0.6l0.2,0.1v5l-0.6-0.7c-0.4-0.5-0.9-0.9-1.3-1.1c-0.4-0.2-0.9-0.3-1.4-0.3c-0.9,0-1.6,0.3-2.2,0.9
		c-0.6,0.6-0.8,1.4-0.8,2.4c0,0.9,0.3,1.7,0.9,2.3c0.6,0.6,1.3,0.9,2.2,0.9c0.5,0,0.9-0.1,1.4-0.3c0.4-0.2,0.9-0.6,1.3-1.1l0.6-0.7
		v5L87,25.3c-0.6,0.3-1.2,0.5-1.7,0.6C84.7,26.1,84.1,26.2,83.5,26.2z M83.5,12.7c-0.9,0-1.7,0.1-2.4,0.4c-0.7,0.3-1.4,0.7-1.9,1.3
		c-0.6,0.6-1.1,1.3-1.4,2.1c-0.3,0.8-0.5,1.6-0.5,2.5c0,1.2,0.2,2.2,0.7,3.1c0.5,0.9,1.2,1.7,2.1,2.3c0.5,0.3,1,0.6,1.5,0.7
		c0.6,0.2,1.2,0.2,1.8,0.2c0.5,0,1.1-0.1,1.6-0.2c0.5-0.1,0.9-0.3,1.4-0.5V22c-0.3,0.3-0.6,0.5-0.9,0.6c-0.5,0.3-1.1,0.4-1.7,0.4
		c-1.1,0-2-0.4-2.7-1.1c-0.7-0.7-1-1.7-1-2.8c0-1.2,0.3-2.2,1-2.9c0.7-0.8,1.6-1.1,2.7-1.1c0.6,0,1.2,0.1,1.7,0.4
		c0.3,0.2,0.6,0.4,0.9,0.6v-2.7c-0.5-0.2-0.9-0.4-1.4-0.5C84.6,12.8,84,12.7,83.5,12.7z"/>
	<path fill="#FFFFFF" d="M88.8,25.5V12.7h3.4l4.8,6.6c0.1,0.1,0.2,0.4,0.5,0.8c0.2,0.4,0.4,0.9,0.7,1.4c-0.1-0.5-0.1-1-0.2-1.4
		c0-0.4,0-0.8,0-1.1v-6.3h3.4v12.8H98l-4.8-6.6c-0.1-0.1-0.3-0.4-0.5-0.8c-0.2-0.4-0.4-0.9-0.7-1.4c0.1,0.5,0.1,1,0.2,1.4
		c0,0.4,0,0.8,0,1.1v6.3H88.8z"/>
	<path fill="#FFFFFF" d="M101.7,25.8h-3.9l-5-6.8c-0.1-0.1-0.2-0.3-0.3-0.6c0,0.2,0,0.4,0,0.6v6.7h-4.1V12.3h3.9l5,6.7
		c0.1,0.1,0.2,0.3,0.3,0.6c0-0.2,0-0.4,0-0.6v-6.7h4.1V25.8z M98.2,25.1h2.8V13h-2.6v6c0,0.3,0,0.7,0,1.1c0,0.4,0.1,0.9,0.2,1.4
		l0.3,2.3l-1-2.1c-0.3-0.6-0.5-1-0.7-1.4c-0.3-0.5-0.4-0.7-0.4-0.8L92,13h-2.8v12.1h2.7v-6c0-0.3,0-0.7,0-1.1c0-0.4-0.1-0.9-0.2-1.4
		l-0.3-2.3l1,2.1c0.2,0.5,0.5,1,0.7,1.4c0.3,0.5,0.4,0.7,0.4,0.8L98.2,25.1z"/>
	<path fill="#FFFFFF" d="M104.2,25.5V12.7h3.5v12.8H104.2z"/>
	<path fill="#FFFFFF" d="M108.1,25.8h-4.2V12.3h4.2V25.8z M104.5,25.1h2.8V13h-2.8V25.1z"/>
	<path fill="#FFFFFF" d="M119.8,13.2V17c-0.5-0.5-1-0.9-1.4-1.2c-0.5-0.2-1-0.4-1.5-0.4c-1,0-1.8,0.3-2.4,1
		c-0.6,0.7-0.9,1.6-0.9,2.7c0,1,0.3,1.9,1,2.6c0.6,0.7,1.4,1,2.4,1c0.5,0,1.1-0.1,1.5-0.4c0.5-0.2,1-0.6,1.4-1.2V25
		c-0.6,0.3-1.1,0.5-1.7,0.6c-0.5,0.1-1.1,0.2-1.7,0.2c-0.7,0-1.3-0.1-1.9-0.2c-0.6-0.2-1.1-0.4-1.6-0.8c-1-0.6-1.7-1.5-2.2-2.4
		c-0.5-1-0.8-2.1-0.8-3.3c0-1,0.2-1.9,0.5-2.7c0.3-0.8,0.8-1.5,1.4-2.2c0.6-0.6,1.3-1.1,2.1-1.4c0.8-0.3,1.6-0.5,2.5-0.5
		c0.6,0,1.1,0.1,1.7,0.2C118.7,12.7,119.3,12.9,119.8,13.2z"/>
	<path fill="#FFFFFF" d="M116.5,26.2c-0.7,0-1.4-0.1-2-0.3c-0.6-0.2-1.2-0.4-1.7-0.8c-1-0.7-1.8-1.5-2.3-2.6c-0.5-1-0.8-2.2-0.8-3.5
		c0-1,0.2-2,0.5-2.8c0.3-0.8,0.8-1.6,1.5-2.3c0.6-0.7,1.4-1.2,2.2-1.5c0.8-0.3,1.7-0.5,2.7-0.5c0.6,0,1.2,0.1,1.7,0.2
		c0.6,0.1,1.2,0.4,1.7,0.6l0.2,0.1v5l-0.6-0.7c-0.4-0.5-0.9-0.9-1.3-1.1c-0.4-0.2-0.9-0.3-1.4-0.3c-0.9,0-1.6,0.3-2.2,0.9
		c-0.6,0.6-0.8,1.4-0.8,2.4c0,0.9,0.3,1.7,0.9,2.3c0.6,0.6,1.3,0.9,2.2,0.9c0.5,0,0.9-0.1,1.4-0.3c0.4-0.2,0.9-0.6,1.3-1.1l0.6-0.7
		v5l-0.2,0.1c-0.6,0.3-1.2,0.5-1.7,0.6C117.7,26.1,117.1,26.2,116.5,26.2z M116.5,12.7c-0.9,0-1.7,0.1-2.4,0.4
		c-0.7,0.3-1.4,0.7-1.9,1.3c-0.6,0.6-1.1,1.3-1.4,2.1c-0.3,0.8-0.5,1.6-0.5,2.5c0,1.2,0.2,2.2,0.7,3.1c0.5,0.9,1.2,1.7,2.1,2.3
		c0.5,0.3,1,0.6,1.5,0.7c0.6,0.2,1.2,0.2,1.8,0.2c0.5,0,1.1-0.1,1.6-0.2c0.5-0.1,0.9-0.3,1.4-0.5V22c-0.3,0.3-0.6,0.5-0.9,0.6
		c-0.5,0.3-1.1,0.4-1.7,0.4c-1.1,0-2-0.4-2.7-1.1c-0.7-0.7-1-1.7-1-2.8c0-1.2,0.3-2.2,1-2.9c0.7-0.8,1.6-1.1,2.7-1.1
		c0.6,0,1.2,0.1,1.7,0.4c0.3,0.2,0.6,0.4,0.9,0.6v-2.7c-0.5-0.2-0.9-0.4-1.4-0.5C117.6,12.8,117,12.7,116.5,12.7z"/>
	<path fill="#FFFFFF" d="M135,19.1c0,0.9-0.2,1.8-0.5,2.6c-0.3,0.8-0.8,1.5-1.5,2.2c-0.7,0.6-1.4,1.1-2.2,1.5
		c-0.8,0.3-1.7,0.5-2.6,0.5c-0.9,0-1.8-0.2-2.6-0.5c-0.8-0.3-1.6-0.8-2.2-1.5c-0.7-0.6-1.2-1.4-1.5-2.2c-0.3-0.8-0.5-1.7-0.5-2.6
		c0-0.9,0.2-1.8,0.5-2.6c0.3-0.8,0.8-1.5,1.5-2.2c0.6-0.6,1.4-1.1,2.2-1.5c0.8-0.3,1.7-0.5,2.6-0.5c0.9,0,1.8,0.2,2.6,0.5
		c0.8,0.3,1.6,0.8,2.2,1.5c0.6,0.6,1.1,1.4,1.5,2.2C134.8,17.3,135,18.2,135,19.1z M128.1,22.9c1,0,1.8-0.4,2.4-1.1
		c0.6-0.7,0.9-1.6,0.9-2.7c0-1.1-0.3-2-1-2.7c-0.6-0.7-1.4-1.1-2.4-1.1c-1,0-1.8,0.4-2.4,1.1c-0.6,0.7-1,1.6-1,2.7
		c0,1.1,0.3,2,0.9,2.7C126.3,22.5,127.1,22.9,128.1,22.9z"/>
	<path fill="#FFFFFF" d="M128.1,26.2c-1,0-1.9-0.2-2.8-0.5c-0.9-0.4-1.7-0.9-2.3-1.5c-0.7-0.7-1.2-1.4-1.6-2.3
		c-0.4-0.9-0.5-1.8-0.5-2.7c0-1,0.2-1.9,0.5-2.7c0.4-0.8,0.9-1.6,1.6-2.3c0.7-0.7,1.4-1.2,2.3-1.5c0.9-0.4,1.8-0.5,2.8-0.5
		c1,0,1.9,0.2,2.8,0.5c0.9,0.4,1.7,0.9,2.3,1.5c0.7,0.7,1.2,1.4,1.6,2.3c0.4,0.9,0.5,1.8,0.5,2.7c0,1-0.2,1.9-0.5,2.7
		c-0.4,0.8-0.9,1.6-1.6,2.3c-0.7,0.7-1.5,1.2-2.4,1.5C130,26,129.1,26.2,128.1,26.2z M128.1,12.7c-0.9,0-1.7,0.2-2.5,0.5
		c-0.8,0.3-1.5,0.8-2.1,1.4c-0.6,0.6-1.1,1.3-1.4,2.1c-0.3,0.8-0.5,1.6-0.5,2.5c0,0.9,0.2,1.7,0.5,2.4c0.3,0.8,0.8,1.5,1.4,2.1
		c0.6,0.6,1.3,1.1,2.1,1.4c1.6,0.6,3.4,0.6,5,0c0.8-0.3,1.5-0.8,2.1-1.4c0.6-0.6,1.1-1.3,1.4-2c0.3-0.8,0.5-1.6,0.5-2.5
		c0-0.9-0.2-1.7-0.5-2.5c-0.3-0.8-0.8-1.5-1.4-2c-0.6-0.6-1.3-1.1-2.1-1.4C129.8,12.9,129,12.7,128.1,12.7z M128.1,23.2
		c-1.1,0-2-0.4-2.7-1.2c-0.7-0.8-1-1.8-1-2.9c0-1.2,0.3-2.2,1-2.9c0.7-0.8,1.6-1.2,2.7-1.2c1.1,0,1.9,0.4,2.7,1.2
		c0.7,0.8,1.1,1.8,1.1,2.9c0,1.2-0.4,2.2-1,2.9C130.1,22.8,129.2,23.2,128.1,23.2z M128.1,15.7c-0.9,0-1.6,0.3-2.1,1
		c-0.6,0.7-0.9,1.5-0.9,2.5c0,1,0.3,1.8,0.8,2.5c0.6,0.6,1.3,0.9,2.2,0.9c0.9,0,1.6-0.3,2.1-0.9c0.6-0.7,0.9-1.5,0.9-2.5
		c0-1-0.3-1.8-0.9-2.5C129.7,16,129,15.7,128.1,15.7z"/>
	<path fill="#FFFFFF" d="M137.1,25.5V12.7h3.4l4.8,6.6c0.1,0.1,0.2,0.4,0.5,0.8c0.2,0.4,0.4,0.9,0.7,1.4c-0.1-0.5-0.1-1-0.2-1.4
		c0-0.4,0-0.8,0-1.1v-6.3h3.4v12.8h-3.4l-4.8-6.6c-0.1-0.1-0.3-0.4-0.5-0.8c-0.2-0.4-0.4-0.9-0.7-1.4c0.1,0.5,0.1,1,0.2,1.4
		c0,0.4,0,0.8,0,1.1v6.3H137.1z"/>
	<path fill="#FFFFFF" d="M150,25.8h-3.9l-5-6.8c-0.1-0.1-0.2-0.3-0.3-0.6c0,0.2,0,0.4,0,0.6v6.7h-4.1V12.3h3.9l5,6.7
		c0.1,0.1,0.2,0.3,0.3,0.6c0-0.2,0-0.4,0-0.6v-6.7h4.1V25.8z M146.5,25.1h2.8V13h-2.6v6c0,0.3,0,0.7,0,1.1c0,0.4,0.1,0.9,0.2,1.4
		l0.3,2.3l-1-2.1c-0.3-0.6-0.5-1-0.7-1.4c-0.3-0.5-0.4-0.7-0.4-0.8l-4.7-6.4h-2.8v12.1h2.7v-6c0-0.3,0-0.7,0-1.1
		c0-0.4-0.1-0.9-0.2-1.4l-0.3-2.3l1,2.1c0.2,0.5,0.5,1,0.7,1.4c0.3,0.5,0.4,0.7,0.4,0.8L146.5,25.1z"/>
	<path fill="#FFFFFF" d="M59.5,34c0.2,0.3,0.5,0.5,0.7,0.6c0.2,0.1,0.5,0.2,0.7,0.2c0.2,0,0.4-0.1,0.5-0.2c0.1-0.1,0.2-0.3,0.2-0.4
		c0-0.2-0.1-0.3-0.2-0.4c-0.1-0.1-0.4-0.2-0.8-0.3c-0.6-0.2-1-0.4-1.2-0.6c-0.2-0.2-0.4-0.6-0.4-1c0-0.6,0.2-1,0.6-1.4
		c0.4-0.4,0.9-0.5,1.4-0.5c0.3,0,0.6,0,0.9,0.1c0.3,0.1,0.6,0.2,0.8,0.4l-0.5,1.1c-0.2-0.2-0.4-0.3-0.6-0.3
		c-0.2-0.1-0.4-0.1-0.6-0.1c-0.2,0-0.3,0-0.5,0.1c-0.1,0.1-0.2,0.2-0.2,0.4c0,0.1,0.1,0.3,0.2,0.3c0.1,0.1,0.3,0.2,0.6,0.3l0.1,0
		c0.6,0.2,1.1,0.4,1.3,0.6c0.1,0.1,0.2,0.3,0.3,0.5C63,33.5,63,33.7,63,34c0,0.6-0.2,1.1-0.6,1.5S61.5,36,60.8,36
		c-0.4,0-0.8-0.1-1.1-0.2c-0.3-0.1-0.7-0.4-1-0.6L59.5,34z"/>
	<path fill="#FFFFFF" d="M64,35.8V30h1.6v5.8H64z"/>
	<path fill="#FFFFFF" d="M67.1,34c0.2,0.3,0.5,0.5,0.7,0.6c0.2,0.1,0.5,0.2,0.7,0.2c0.2,0,0.4-0.1,0.5-0.2c0.1-0.1,0.2-0.3,0.2-0.4
		c0-0.2-0.1-0.3-0.2-0.4c-0.1-0.1-0.4-0.2-0.8-0.3c-0.6-0.2-1-0.4-1.2-0.6c-0.2-0.2-0.4-0.6-0.4-1c0-0.6,0.2-1,0.6-1.4
		c0.4-0.4,0.9-0.5,1.4-0.5c0.3,0,0.6,0,0.9,0.1c0.3,0.1,0.6,0.2,0.8,0.4l-0.5,1.1c-0.2-0.2-0.4-0.3-0.6-0.3
		c-0.2-0.1-0.4-0.1-0.6-0.1c-0.2,0-0.3,0-0.5,0.1c-0.1,0.1-0.2,0.2-0.2,0.4c0,0.1,0.1,0.3,0.2,0.3c0.1,0.1,0.3,0.2,0.6,0.3l0.1,0
		c0.6,0.2,1.1,0.4,1.3,0.6c0.1,0.1,0.2,0.3,0.3,0.5c0.1,0.2,0.1,0.4,0.1,0.7c0,0.6-0.2,1.1-0.6,1.5S69.1,36,68.4,36
		c-0.4,0-0.8-0.1-1.1-0.2c-0.3-0.1-0.7-0.4-1-0.6L67.1,34z"/>
	<path fill="#FFFFFF" d="M72.4,35.8v-4.4h-1.3V30h4.2v1.4H74v4.4H72.4z"/>
	<path fill="#FFFFFF" d="M76,35.8V30h3.6v1.3h-2v1h1.9v1.2h-1.9v1h2v1.3H76z"/>
	<path fill="#FFFFFF" d="M87.3,35.8h-1.5l-0.3-2.5c0-0.2,0-0.4-0.1-0.6c0-0.2,0-0.5-0.1-0.7c0,0.2-0.1,0.6-0.2,0.9
		c0,0.1,0,0.1-0.1,0.2l-0.8,2.7h-1.1l-0.8-2.7c0,0,0-0.1,0-0.2c-0.1-0.4-0.2-0.7-0.2-0.9c0,0.2,0,0.4-0.1,0.7c0,0.2,0,0.4-0.1,0.6
		l-0.3,2.5h-1.5l0.9-5.8h1.6l0.9,3c0,0,0,0.1,0,0.1c0.1,0.3,0.1,0.5,0.2,0.7c0-0.1,0-0.2,0.1-0.3c0-0.1,0.1-0.3,0.1-0.5l0.9-3h1.6
		L87.3,35.8z"/>
	<path fill="#FFFFFF" d="M87.5,35.8l2-5.8h2l2,5.8h-1.6l-0.3-1h-2.2l-0.3,1H87.5z M89.7,33.7h1.6l-0.6-1.9c0-0.1,0-0.2-0.1-0.3
		c0-0.1-0.1-0.3-0.1-0.5c0,0.1-0.1,0.3-0.1,0.4s-0.1,0.3-0.1,0.4L89.7,33.7z"/>
	<path fill="#FFFFFF" d="M94.3,34c0.2,0.3,0.5,0.5,0.7,0.6c0.2,0.1,0.5,0.2,0.7,0.2c0.2,0,0.4-0.1,0.5-0.2c0.1-0.1,0.2-0.3,0.2-0.4
		c0-0.2-0.1-0.3-0.2-0.4c-0.1-0.1-0.4-0.2-0.8-0.3c-0.6-0.2-1-0.4-1.2-0.6c-0.2-0.2-0.4-0.6-0.4-1c0-0.6,0.2-1,0.6-1.4
		c0.4-0.4,0.9-0.5,1.4-0.5c0.3,0,0.6,0,0.9,0.1c0.3,0.1,0.6,0.2,0.8,0.4l-0.5,1.1c-0.2-0.2-0.4-0.3-0.6-0.3
		c-0.2-0.1-0.4-0.1-0.6-0.1c-0.2,0-0.3,0-0.5,0.1c-0.1,0.1-0.2,0.2-0.2,0.4c0,0.1,0.1,0.3,0.2,0.3c0.1,0.1,0.3,0.2,0.6,0.3l0.1,0
		c0.6,0.2,1.1,0.4,1.3,0.6c0.1,0.1,0.2,0.3,0.3,0.5c0.1,0.2,0.1,0.4,0.1,0.7c0,0.6-0.2,1.1-0.6,1.5c-0.4,0.4-0.9,0.6-1.6,0.6
		c-0.4,0-0.8-0.1-1.1-0.2c-0.3-0.1-0.7-0.4-1-0.6L94.3,34z"/>
	<path fill="#FFFFFF" d="M104,33.7v-1.2h3.1c0,0,0,0.1,0,0.1c0,0,0,0.1,0,0.2c0,1-0.3,1.8-0.8,2.3c-0.5,0.6-1.3,0.8-2.2,0.8
		c-0.5,0-0.9-0.1-1.3-0.2c-0.4-0.1-0.7-0.4-1-0.6c-0.3-0.3-0.5-0.6-0.6-1c-0.2-0.4-0.2-0.8-0.2-1.2c0-0.4,0.1-0.8,0.2-1.2
		c0.1-0.4,0.4-0.7,0.7-1c0.3-0.3,0.6-0.5,1-0.6c0.4-0.1,0.8-0.2,1.2-0.2c0.6,0,1.1,0.1,1.5,0.3c0.4,0.2,0.8,0.6,1.1,1l-1.4,0.7
		c-0.2-0.2-0.3-0.4-0.6-0.5c-0.2-0.1-0.4-0.2-0.7-0.2c-0.5,0-0.8,0.2-1.1,0.5c-0.3,0.3-0.4,0.7-0.4,1.3c0,0.6,0.1,1,0.4,1.3
		c0.3,0.3,0.6,0.5,1.1,0.5c0.4,0,0.7-0.1,1-0.3c0.3-0.2,0.4-0.5,0.5-0.8H104z"/>
	<path fill="#FFFFFF" d="M108.1,35.8V30h3.6v1.3h-2v1h1.9v1.2h-1.9v1h2v1.3H108.1z"/>
	<path fill="#FFFFFF" d="M112.7,35.8V30h1.7c0.6,0,1.1,0,1.4,0.1c0.3,0.1,0.5,0.2,0.7,0.3c0.2,0.2,0.4,0.4,0.5,0.6
		c0.1,0.2,0.2,0.5,0.2,0.8c0,0.4-0.1,0.8-0.3,1.1c-0.2,0.3-0.5,0.5-1,0.6l1.6,2.3h-1.8l-1.3-2.3v2.3H112.7z M114.2,32.8h0.3
		c0.3,0,0.6-0.1,0.7-0.2c0.2-0.1,0.2-0.3,0.2-0.5c0-0.3-0.1-0.5-0.2-0.6c-0.1-0.1-0.4-0.2-0.7-0.2h-0.3V32.8z"/>
	<path fill="#FFFFFF" d="M117.9,35.8V30h3.6v1.3h-2v1h1.9v1.2h-1.9v1h2v1.3H117.9z"/>
	<path fill="#FFFFFF" d="M122.5,35.8V30h1.5l2.2,3c0,0.1,0.1,0.2,0.2,0.4c0.1,0.2,0.2,0.4,0.3,0.7c0-0.2-0.1-0.5-0.1-0.6
		c0-0.2,0-0.4,0-0.5V30h1.5v5.8h-1.5l-2.2-3c0-0.1-0.1-0.2-0.2-0.4c-0.1-0.2-0.2-0.4-0.3-0.6c0,0.2,0.1,0.5,0.1,0.6
		c0,0.2,0,0.4,0,0.5v2.9H122.5z"/>
	<path fill="#FFFFFF" d="M133.6,30.3V32c-0.2-0.2-0.4-0.4-0.6-0.5c-0.2-0.1-0.4-0.2-0.7-0.2c-0.5,0-0.8,0.2-1.1,0.5
		c-0.3,0.3-0.4,0.7-0.4,1.2c0,0.5,0.1,0.9,0.4,1.2c0.3,0.3,0.7,0.5,1.1,0.5c0.2,0,0.5-0.1,0.7-0.2c0.2-0.1,0.4-0.3,0.6-0.5v1.7
		c-0.3,0.1-0.5,0.2-0.7,0.3c-0.2,0.1-0.5,0.1-0.8,0.1c-0.3,0-0.6,0-0.9-0.1c-0.3-0.1-0.5-0.2-0.7-0.3c-0.4-0.3-0.8-0.7-1-1.1
		c-0.2-0.4-0.3-0.9-0.3-1.5c0-0.4,0.1-0.8,0.2-1.2c0.1-0.4,0.4-0.7,0.7-1c0.3-0.3,0.6-0.5,0.9-0.6c0.3-0.1,0.7-0.2,1.2-0.2
		c0.3,0,0.5,0,0.8,0.1C133.1,30.1,133.4,30.1,133.6,30.3z"/>
	<path fill="#FFFFFF" d="M134.6,35.8V30h1.6v5.8H134.6z"/>
	<path fill="#FFFFFF" d="M136.8,35.8l2-5.8h2l2,5.8h-1.6l-0.3-1h-2.2l-0.3,1H136.8z M139,33.7h1.6l-0.6-1.9c0-0.1,0-0.2-0.1-0.3
		c0-0.1-0.1-0.3-0.1-0.5c0,0.1-0.1,0.3-0.1,0.4c0,0.1-0.1,0.3-0.1,0.4L139,33.7z"/>
	<path fill="#FFFFFF" d="M143.3,35.8V30h1.6v5.8H143.3z"/>
	<path fill="#FFFFFF" d="M146.5,34c0.2,0.3,0.5,0.5,0.7,0.6c0.2,0.1,0.5,0.2,0.7,0.2c0.2,0,0.4-0.1,0.5-0.2c0.1-0.1,0.2-0.3,0.2-0.4
		c0-0.2-0.1-0.3-0.2-0.4c-0.1-0.1-0.4-0.2-0.8-0.3c-0.6-0.2-1-0.4-1.2-0.6s-0.4-0.6-0.4-1c0-0.6,0.2-1,0.6-1.4
		c0.4-0.4,0.9-0.5,1.4-0.5c0.3,0,0.6,0,0.9,0.1c0.3,0.1,0.6,0.2,0.8,0.4l-0.5,1.1c-0.2-0.2-0.4-0.3-0.6-0.3
		c-0.2-0.1-0.4-0.1-0.6-0.1c-0.2,0-0.3,0-0.5,0.1c-0.1,0.1-0.2,0.2-0.2,0.4c0,0.1,0.1,0.3,0.2,0.3c0.1,0.1,0.3,0.2,0.6,0.3l0.1,0
		c0.6,0.2,1.1,0.4,1.3,0.6c0.1,0.1,0.2,0.3,0.3,0.5c0.1,0.2,0.1,0.4,0.1,0.7c0,0.6-0.2,1.1-0.6,1.5c-0.4,0.4-0.9,0.6-1.6,0.6
		c-0.4,0-0.8-0.1-1.1-0.2c-0.3-0.1-0.7-0.4-1-0.6L146.5,34z"/>
</g>
</svg>
