<?xml version="1.0" encoding="utf-8"?>
<!-- Generator: Adobe Illustrator 18.1.1, SVG Export Plug-In . SVG Version: 6.00 Build 0)  -->
<svg version="1.1" id="Camada_1" xmlns="http://www.w3.org/2000/svg" xmlns:xlink="http://www.w3.org/1999/xlink" x="0px" y="0px"
	 viewBox="0 0 48 48" enable-background="new 0 0 48 48" xml:space="preserve">
<rect x="-90" y="-100" fill="#878786" width="48" height="48"/>
<line fill="none" stroke="#B5B5B5" stroke-miterlimit="10" x1="-90" y1="-100" x2="-42" y2="-52"/>
<line fill="none" stroke="#B5B5B5" stroke-miterlimit="10" x1="-42" y1="-100" x2="-90" y2="-52"/>
<rect x="12" y="-77" fill="#CCCCCC" width="21.8" height="2"/>
<rect x="20.8" y="-82.3" transform="matrix(0.7072 0.707 -0.707 0.7072 -48.9006 -44.5169)" fill="#CCCCCC" width="17" height="2"/>
<rect x="20.8" y="-71.7" transform="matrix(-0.7072 0.707 -0.707 -0.7072 1.549357e-002 -141.4185)" fill="#CCCCCC" width="17" height="2"/>
<g>
	
		<rect x="97.5" y="7.7" transform="matrix(-0.7072 0.707 -0.707 -0.7072 187.1154 -60.0841)" fill="#FFFFFF" width="17" height="2"/>
	<rect x="97.5" y="18.3" transform="matrix(0.7072 0.707 -0.707 0.7072 44.6819 -69.2969)" fill="#FFFFFF" width="17" height="2"/>
</g>
<g>
	
		<rect x="206.8" y="7.7" transform="matrix(-0.707 -0.7072 0.7072 -0.707 361.3592 167.1124)" fill="#ED1818" width="17" height="2"/>
	
		<rect x="196.2" y="7.7" transform="matrix(-0.707 0.7072 -0.7072 -0.707 355.5999 -129.8982)" fill="#ED1818" width="17" height="2"/>
</g>
<g>
	<rect x="12" y="12" fill="#CCCCCC" width="24" height="2"/>
	<rect x="12" y="23" fill="#CCCCCC" width="24" height="2"/>
	<rect x="12" y="34" fill="#CCCCCC" width="24" height="2"/>
</g>
<rect x="148" y="-64.6" fill="#CCCCCC" width="21.8" height="2"/>
<rect x="156.8" y="-69.9" transform="matrix(0.7072 0.707 -0.707 0.7072 -0.2816 -137.033)" fill="#CCCCCC" width="17" height="2"/>
<rect x="156.8" y="-59.3" transform="matrix(-0.7072 0.707 -0.707 -0.7072 240.9842 -216.3438)" fill="#CCCCCC" width="17" height="2"/>
<g display="none">
	<path display="inline" fill="#B5B5B5" d="M35.8-87.8v23.5H12.3v-23.5H35.8 M36-88H12v24h24V-88L36-88z"/>
</g>
<path fill="#FFFFFF" d="M120-76.9l3-2.7c-0.5-1.1-0.5-1.1-0.9-2.2l-4,0.2c-0.5-0.5-0.8-0.8-1.4-1.4l0.2-4c-1.1-0.5-1.1-0.5-2.2-0.9
	l-2.7,3c-0.8,0-1.2,0-1.9,0l-2.7-3c-1.1,0.5-1.1,0.5-2.2,0.9l0.2,4c-0.5,0.5-0.8,0.8-1.4,1.4l-4-0.2c-0.5,1.1-0.5,1.1-0.9,2.2l3,2.7
	c0,0.8,0,1.2,0,1.9l-3,2.7c0.5,1.1,0.5,1.1,0.9,2.2l4-0.2c0.5,0.5,0.8,0.8,1.4,1.4l-0.2,4c1.1,0.5,1.1,0.5,2.2,0.9l2.7-3
	c0.8,0,1.2,0,1.9,0l2.7,3c1.1-0.5,1.1-0.5,2.2-0.9l-0.2-4c0.5-0.5,0.8-0.8,1.4-1.4l4,0.2c0.5-1.1,0.5-1.1,0.9-2.2l-3-2.7
	C120-75.8,120-76.2,120-76.9z M115.6-75.1c-0.5,2.6-3,4.2-5.6,3.7c-2.6-0.5-4.2-3-3.7-5.6c0.5-2.6,3-4.2,5.6-3.7
	C114.5-80.1,116.2-77.7,115.6-75.1z"/>
<polyline fill="none" stroke="#ED1818" stroke-width="2" stroke-miterlimit="10" points="218,12.3 218,26.3 202,26.3 202,12.3 "/>
</svg>
