<?xml version="1.0" encoding="utf-8"?>
<!-- Generator: Adobe Illustrator 18.1.1, SVG Export Plug-In . SVG Version: 6.00 Build 0)  -->
<svg version="1.1" id="Camada_1" xmlns="http://www.w3.org/2000/svg" xmlns:xlink="http://www.w3.org/1999/xlink" x="0px" y="0px"
	 viewBox="0 0 48 48" enable-background="new 0 0 48 48" xml:space="preserve">
<rect x="-216" fill="#878786" width="48" height="48"/>
<line fill="none" stroke="#B5B5B5" stroke-miterlimit="10" x1="-216" y1="0" x2="-168" y2="48"/>
<line fill="none" stroke="#B5B5B5" stroke-miterlimit="10" x1="-168" y1="0" x2="-216" y2="48"/>
<rect x="-114" y="23" fill="#CCCCCC" width="21.8" height="2"/>
<rect x="-105.2" y="17.7" transform="matrix(0.7072 0.707 -0.707 0.7072 -15.0929 73.8541)" fill="#CCCCCC" width="17" height="2"/>
<rect x="-105.2" y="28.3" transform="matrix(-0.7072 0.707 -0.707 -0.7072 -144.3831 118.386)" fill="#CCCCCC" width="17" height="2"/>
<g>
	<rect x="14.3" y="23" fill="#CCCCCC" width="21.8" height="2"/>
	<rect x="10.2" y="17.7" transform="matrix(-0.7072 0.707 -0.707 -0.7072 45.1622 18.7076)" fill="#CCCCCC" width="17" height="2"/>
	<rect x="10.2" y="28.3" transform="matrix(0.7072 0.707 -0.707 0.7072 26.1902 -4.6486)" fill="#CCCCCC" width="17" height="2"/>
</g>
<g display="none">
	<path display="inline" fill="#B5B5B5" d="M-90.3,12.3v23.5h-23.5V12.3H-90.3 M-90,12h-24v24h24V12L-90,12z"/>
</g>
</svg>
