<?xml version="1.0" encoding="utf-8"?>
<!-- Generator: Adobe Illustrator 18.1.1, SVG Export Plug-In . SVG Version: 6.00 Build 0)  -->
<svg version="1.1" id="Camada_1" xmlns="http://www.w3.org/2000/svg" xmlns:xlink="http://www.w3.org/1999/xlink" x="0px" y="0px"
	 viewBox="0 0 48 48" enable-background="new 0 0 48 48" xml:space="preserve">
<rect x="-172" y="-90" fill="#878786" width="48" height="48"/>
<line fill="none" stroke="#B5B5B5" stroke-miterlimit="10" x1="-172" y1="-90" x2="-124" y2="-42"/>
<line fill="none" stroke="#B5B5B5" stroke-miterlimit="10" x1="-124" y1="-90" x2="-172" y2="-42"/>
<rect x="-70" y="-67" fill="#CCCCCC" width="21.8" height="2"/>
<rect x="-61.2" y="-72.3" transform="matrix(0.7072 0.707 -0.707 0.7072 -65.8424 16.3892)" fill="#CCCCCC" width="17" height="2"/>
<rect x="-61.2" y="-61.7" transform="matrix(-0.7072 0.707 -0.707 -0.7072 -132.9018 -66.3691)" fill="#CCCCCC" width="17" height="2"/>
<g>
	<rect x="15.5" y="17.7" transform="matrix(-0.7072 0.707 -0.707 -0.7072 54.1981 14.9653)" fill="#FFFFFF" width="17" height="2"/>
	<rect x="15.5" y="28.3" transform="matrix(0.7072 0.707 -0.707 0.7072 27.7401 -8.3909)" fill="#FFFFFF" width="17" height="2"/>
</g>
<g>
	
		<rect x="124.8" y="17.7" transform="matrix(-0.707 -0.7072 0.7072 -0.707 214.3098 126.1951)" fill="#ED1818" width="17" height="2"/>
	
		<rect x="114.2" y="17.7" transform="matrix(-0.707 0.7072 -0.7072 -0.707 222.6939 -54.8399)" fill="#ED1818" width="17" height="2"/>
</g>
<g>
	<rect x="-70" y="22" fill="#CCCCCC" width="24" height="2"/>
	<rect x="-70" y="33" fill="#CCCCCC" width="24" height="2"/>
	<rect x="-70" y="44" fill="#CCCCCC" width="24" height="2"/>
</g>
<rect x="66" y="-54.6" fill="#CCCCCC" width="21.8" height="2"/>
<rect x="74.8" y="-59.9" transform="matrix(0.7072 0.707 -0.707 0.7072 -17.2234 -76.1269)" fill="#CCCCCC" width="17" height="2"/>
<rect x="74.8" y="-49.3" transform="matrix(-0.7072 0.707 -0.707 -0.7072 108.0669 -141.2944)" fill="#CCCCCC" width="17" height="2"/>
<g display="none">
	<path display="inline" fill="#B5B5B5" d="M-46.3-77.8v23.5h-23.5v-23.5H-46.3 M-46-78h-24v24h24V-78L-46-78z"/>
</g>
<path fill="#FFFFFF" d="M38-66.9l3-2.7c-0.5-1.1-0.5-1.1-0.9-2.2l-4,0.2c-0.5-0.5-0.8-0.8-1.4-1.4l0.2-4c-1.1-0.5-1.1-0.5-2.2-0.9
	L30-75c-0.8,0-1.2,0-1.9,0l-2.7-3c-1.1,0.5-1.1,0.5-2.2,0.9l0.2,4c-0.5,0.5-0.8,0.8-1.4,1.4l-4-0.2c-0.5,1.1-0.5,1.1-0.9,2.2l3,2.7
	c0,0.8,0,1.2,0,1.9l-3,2.7c0.5,1.1,0.5,1.1,0.9,2.2l4-0.2c0.5,0.5,0.8,0.8,1.4,1.4l-0.2,4c1.1,0.5,1.1,0.5,2.2,0.9l2.7-3
	c0.8,0,1.2,0,1.9,0l2.7,3c1.1-0.5,1.1-0.5,2.2-0.9l-0.2-4c0.5-0.5,0.8-0.8,1.4-1.4l4,0.2c0.5-1.1,0.5-1.1,0.9-2.2L38-65
	C38-65.8,38-66.2,38-66.9z M33.6-65.1c-0.5,2.6-3,4.2-5.6,3.7c-2.6-0.5-4.2-3-3.7-5.6c0.5-2.6,3-4.2,5.6-3.7
	C32.5-70.1,34.2-67.7,33.6-65.1z"/>
<polyline fill="none" stroke="#ED1818" stroke-width="2" stroke-miterlimit="10" points="136,22.3 136,36.3 120,36.3 120,22.3 "/>
</svg>
